<svg width="19" height="16" viewBox="0 0 19 16" fill="none" xmlns="http://www.w3.org/2000/svg">
<path fill-rule="evenodd" clip-rule="evenodd" d="M7.17867 16H11.2111C14.043 16 15.4594 16 16.4766 15.3467C16.9155 15.0649 17.2935 14.7012 17.589 14.2764C18.2686 13.2987 18.2686 11.936 18.2686 9.21246C18.2686 6.48803 18.2686 5.12625 17.589 4.14848C17.2935 3.72369 16.9155 3.36003 16.4766 3.07826C15.8233 2.65781 15.0048 2.50759 13.7517 2.45426C13.1538 2.45426 12.6393 2.0187 12.5222 1.45426C12.4328 1.04081 12.2003 0.670294 11.8642 0.40533C11.5281 0.140366 11.1089 -0.00279538 10.6775 4.13606e-05H7.71221C6.81572 4.13606e-05 6.04354 0.608929 5.86751 1.45426C5.75046 2.0187 5.23598 2.45426 4.63802 2.45426C3.38584 2.50759 2.56738 2.6587 1.91316 3.07826C1.47455 3.36009 1.09686 3.72374 0.801627 4.14848C0.121094 5.12625 0.121094 6.48803 0.121094 9.21246C0.121094 11.936 0.121094 13.2978 0.800719 14.2764C1.09471 14.6996 1.47218 15.0631 1.91316 15.3467C2.93033 16 4.34675 16 7.17867 16ZM9.19487 5.57603C7.10699 5.57603 5.41382 7.20358 5.41382 9.21157C5.41382 11.2205 7.10699 12.8489 9.19487 12.8489C11.2827 12.8489 12.9759 11.2205 12.9759 9.21246C12.9759 7.20358 11.2827 5.57603 9.19487 5.57603ZM9.19487 7.03025C7.94268 7.03025 6.92642 8.00713 6.92642 9.21246C6.92642 10.4169 7.94268 11.3938 9.19487 11.3938C10.447 11.3938 11.4633 10.4169 11.4633 9.21246C11.4633 8.00713 10.447 7.03025 9.19487 7.03025ZM13.4795 6.30314C13.4795 5.90136 13.818 5.57603 14.2363 5.57603H15.2434C15.6608 5.57603 16.0002 5.90136 16.0002 6.30314C15.9983 6.49771 15.9176 6.68358 15.7759 6.81992C15.6341 6.95626 15.443 7.0319 15.2443 7.03025H14.2363C14.1378 7.03118 14.0402 7.01312 13.9489 6.97709C13.8576 6.94105 13.7744 6.88775 13.7041 6.82024C13.6339 6.75272 13.5779 6.6723 13.5393 6.58358C13.5008 6.49485 13.4804 6.39956 13.4795 6.30314Z" fill="white"/>
</svg>
