<svg width="6" height="6" viewBox="0 0 6 6" fill="none" xmlns="http://www.w3.org/2000/svg">
<path d="M0.216 6C0.168 6 0.136 5.984 0.12 5.952C0.104 5.92 0.112 5.884 0.144 5.844L2.196 2.976L0.276 0.276C0.244 0.236 0.236 0.204 0.252 0.18C0.276 0.148 0.312 0.132 0.36 0.132H1.416C1.48 0.132 1.528 0.156 1.56 0.204L2.352 1.356C2.44 1.492 2.532 1.636 2.628 1.788C2.732 1.94 2.824 2.084 2.904 2.22H2.916C3.02 2.068 3.124 1.916 3.228 1.764C3.332 1.604 3.436 1.448 3.54 1.296L4.284 0.204C4.324 0.156 4.376 0.132 4.44 0.132H5.436C5.492 0.132 5.528 0.148 5.544 0.18C5.56 0.204 5.552 0.236 5.52 0.276L3.6 2.952L5.688 5.844C5.72 5.884 5.724 5.92 5.7 5.952C5.684 5.984 5.652 6 5.604 6H4.548C4.484 6 4.436 5.976 4.404 5.928L3.648 4.848C3.52 4.664 3.392 4.48 3.264 4.296C3.144 4.104 3.02 3.916 2.892 3.732H2.88C2.768 3.916 2.648 4.104 2.52 4.296C2.4 4.48 2.28 4.664 2.16 4.848L1.416 5.928C1.384 5.976 1.332 6 1.26 6H0.216Z" fill="black"/>
</svg>
