<svg width="16" height="16" viewBox="0 0 16 16" fill="none" xmlns="http://www.w3.org/2000/svg">
<path d="M13.3333 3.33365C13.5101 3.33365 13.6797 3.40389 13.8047 3.52891C13.9298 3.65394 14 3.8235 14 4.00032C14 4.17713 13.9298 4.3467 13.8047 4.47172C13.6797 4.59674 13.5101 4.66698 13.3333 4.66698H12.6667L12.6647 4.71432L12.0427 13.4283C12.0187 13.7647 11.8682 14.0795 11.6214 14.3094C11.3746 14.5392 11.0499 14.667 10.7127 14.667H5.28667C4.94943 14.667 4.62471 14.5392 4.37792 14.3094C4.13114 14.0795 3.98061 13.7647 3.95667 13.4283L3.33467 4.71498C3.33366 4.699 3.33321 4.68299 3.33333 4.66698H2.66667C2.48986 4.66698 2.32029 4.59674 2.19526 4.47172C2.07024 4.3467 2 4.17713 2 4.00032C2 3.8235 2.07024 3.65394 2.19526 3.52891C2.32029 3.40389 2.48986 3.33365 2.66667 3.33365H13.3333ZM9.33333 1.33365C9.51014 1.33365 9.67971 1.40389 9.80474 1.52891C9.92976 1.65394 10 1.8235 10 2.00032C10 2.17713 9.92976 2.3467 9.80474 2.47172C9.67971 2.59674 9.51014 2.66698 9.33333 2.66698H6.66667C6.48986 2.66698 6.32029 2.59674 6.19526 2.47172C6.07024 2.3467 6 2.17713 6 2.00032C6 1.8235 6.07024 1.65394 6.19526 1.52891C6.32029 1.40389 6.48986 1.33365 6.66667 1.33365H9.33333Z" fill="#0D0D0D"/>
<path d="M5.66736 7V11M10.334 7V11M8.00069 6V11.6667" stroke="#D9E3E7" stroke-linecap="round"/>
</svg>
