<svg width="17" height="16" viewBox="0 0 17 16" fill="none" xmlns="http://www.w3.org/2000/svg">
<g clip-path="url(#clip0_317_242)">
<path d="M2.37553 10.3111L1.53108 13.9555C1.50195 14.0888 1.50295 14.2268 1.534 14.3596C1.56506 14.4924 1.62538 14.6166 1.71058 14.7231C1.79577 14.8296 1.90367 14.9157 2.0264 14.9751C2.14914 15.0346 2.2836 15.0658 2.41997 15.0667C2.48349 15.0735 2.54756 15.0735 2.61108 15.0667L6.27775 14.2222L13.3177 7.20888L9.38886 3.28888L2.37553 10.3111Z" fill="white"/>
<path d="M15.5311 3.69778L12.9089 1.07556C12.7365 0.904029 12.5032 0.807739 12.26 0.807739C12.0168 0.807739 11.7835 0.904029 11.6111 1.07556L10.1533 2.53333L14.0778 6.45778L15.5355 5C15.6209 4.91426 15.6884 4.81253 15.7344 4.70065C15.7803 4.58877 15.8038 4.46892 15.8034 4.34797C15.8029 4.22701 15.7787 4.10733 15.732 3.99576C15.6853 3.8842 15.617 3.78294 15.5311 3.69778Z" fill="white"/>
</g>
<defs>
<clipPath id="clip0_317_242">
<rect width="16" height="16" fill="white" transform="translate(0.5)"/>
</clipPath>
</defs>
</svg>
