<svg width="14" height="13" viewBox="0 0 14 13" fill="none" xmlns="http://www.w3.org/2000/svg">
<path fill-rule="evenodd" clip-rule="evenodd" d="M8.21299 0.718596C8.57083 0.350823 9.05912 0.141602 9.57124 0.141602C9.82453 0.141602 10.075 0.192894 10.3082 0.292184C10.5414 0.391459 10.7524 0.536588 10.9295 0.718596C11.1066 0.900574 11.2463 1.11588 11.3414 1.35187C11.3734 1.43121 11.4001 1.51241 11.4215 1.59493H13C13.2761 1.59493 13.5 1.81879 13.5 2.09493C13.5 2.37108 13.2761 2.59493 13 2.59493H11.4215C11.4001 2.67746 11.3734 2.75866 11.3414 2.838C11.2463 3.07399 11.1066 3.2893 10.9295 3.47127C10.7524 3.65328 10.5414 3.79841 10.3082 3.89769C10.075 3.99698 9.82453 4.04827 9.57124 4.04827C9.05912 4.04827 8.57083 3.83905 8.21299 3.47127C7.97388 3.22552 7.80593 2.92246 7.72095 2.59493H1C0.723858 2.59493 0.5 2.37108 0.5 2.09493C0.5 1.81879 0.723858 1.59493 1 1.59493H7.72095C7.80593 1.26741 7.97388 0.964347 8.21299 0.718596ZM9.57124 1.1416C9.33331 1.1416 9.10226 1.23862 8.92972 1.41595C8.75673 1.59375 8.65719 1.83774 8.65719 2.09493C8.65719 2.35213 8.75673 2.59612 8.92972 2.77392C9.10226 2.95125 9.33331 3.04827 9.57124 3.04827C9.68935 3.04827 9.80663 3.02438 9.91653 2.97759C10.0265 2.9308 10.1272 2.86182 10.2128 2.77392C10.2983 2.68599 10.3669 2.58086 10.4139 2.4642C10.4609 2.34752 10.4853 2.222 10.4853 2.09493C10.4853 1.96787 10.4609 1.84235 10.4139 1.72567C10.3669 1.60901 10.2983 1.50388 10.2128 1.41595C10.1272 1.32805 10.0265 1.25907 9.91653 1.21228C9.80663 1.16549 9.68935 1.1416 9.57124 1.1416ZM2.21299 5.12326C2.57083 4.75549 3.05911 4.54627 3.57124 4.54627C4.08337 4.54627 4.57166 4.75549 4.92949 5.12326C5.1686 5.36901 5.33656 5.67207 5.42153 5.9996H13C13.2761 5.9996 13.5 6.22346 13.5 6.4996C13.5 6.77574 13.2761 6.9996 13 6.9996H5.42153C5.33656 7.32713 5.1686 7.63019 4.92949 7.87594C4.57166 8.24371 4.08337 8.45294 3.57124 8.45294C3.05911 8.45294 2.57083 8.24371 2.21299 7.87594C1.97388 7.63019 1.80593 7.32713 1.72095 6.9996H1C0.723858 6.9996 0.5 6.77574 0.5 6.4996C0.5 6.22346 0.723858 5.9996 1 5.9996H1.72095C1.80593 5.67207 1.97388 5.36901 2.21299 5.12326ZM3.57124 5.54627C3.33331 5.54627 3.10226 5.64328 2.92972 5.82062C2.75673 5.99842 2.65719 6.24241 2.65719 6.4996C2.65719 6.75679 2.75673 7.00079 2.92972 7.17859C3.10226 7.35592 3.33331 7.45294 3.57124 7.45294C3.80918 7.45294 4.04023 7.35592 4.21277 7.17859C4.38576 7.00079 4.4853 6.75679 4.4853 6.4996C4.4853 6.24241 4.38576 5.99842 4.21277 5.82062C4.04023 5.64328 3.80918 5.54627 3.57124 5.54627ZM6.49862 9.52793C6.85645 9.16016 7.34474 8.95094 7.85686 8.95094C8.36908 8.95094 8.85745 9.16019 9.21535 9.52803C9.45437 9.77369 9.62258 10.0766 9.70771 10.4043H13C13.2761 10.4043 13.5 10.6281 13.5 10.9043C13.5 11.1804 13.2761 11.4043 13 11.4043H9.70776C9.62266 11.7321 9.45448 12.0354 9.21535 12.2812C8.85745 12.649 8.36908 12.8583 7.85686 12.8583C7.34414 12.8583 6.85603 12.6479 6.49862 12.2806C6.25951 12.0349 6.09155 11.7318 6.00657 11.4043H1C0.723858 11.4043 0.5 11.1804 0.5 10.9043C0.5 10.6281 0.723858 10.4043 1 10.4043H6.00657C6.09155 10.0767 6.25951 9.77368 6.49862 9.52793ZM7.85686 9.95094C7.61893 9.95094 7.38788 10.048 7.21534 10.2253C7.04235 10.4031 6.94281 10.6471 6.94281 10.9043C6.94281 11.1615 7.04235 11.4055 7.21534 11.5833C7.3883 11.761 7.61953 11.8583 7.85686 11.8583C8.09488 11.8583 8.32602 11.7612 8.49862 11.5838C8.67179 11.4058 8.77157 11.1614 8.77157 10.9043C8.77157 10.6474 8.67195 10.4035 8.49862 10.2254C8.32602 10.048 8.09488 9.95094 7.85686 9.95094Z" fill="#808080"/>
</svg>
