<svg width="22" height="21" viewBox="0 0 22 21" fill="none" xmlns="http://www.w3.org/2000/svg">
<path d="M9.54164 10.5C9.54164 10.7984 9.66016 11.0845 9.87114 11.2955C10.0821 11.5065 10.3683 11.625 10.6666 11.625C10.965 11.625 11.2512 11.5065 11.4621 11.2955C11.6731 11.0845 11.7916 10.7984 11.7916 10.5C11.7916 10.2016 11.6731 9.91548 11.4621 9.7045C11.2512 9.49353 10.965 9.375 10.6666 9.375C10.3683 9.375 10.0821 9.49353 9.87114 9.7045C9.66016 9.91548 9.54164 10.2016 9.54164 10.5ZM14.2291 10.5C14.2291 10.7984 14.3477 11.0845 14.5586 11.2955C14.7696 11.5065 15.0558 11.625 15.3541 11.625C15.6525 11.625 15.9387 11.5065 16.1496 11.2955C16.3606 11.0845 16.4791 10.7984 16.4791 10.5C16.4791 10.2016 16.3606 9.91548 16.1496 9.7045C15.9387 9.49353 15.6525 9.375 15.3541 9.375C15.0558 9.375 14.7696 9.49353 14.5586 9.7045C14.3477 9.91548 14.2291 10.2016 14.2291 10.5ZM4.85414 10.5C4.85414 10.7984 4.97266 11.0845 5.18364 11.2955C5.39462 11.5065 5.68077 11.625 5.97914 11.625C6.27751 11.625 6.56365 11.5065 6.77463 11.2955C6.98561 11.0845 7.10414 10.7984 7.10414 10.5C7.10414 10.2016 6.98561 9.91548 6.77463 9.7045C6.56365 9.49353 6.27751 9.375 5.97914 9.375C5.68077 9.375 5.39462 9.49353 5.18364 9.7045C4.97266 9.91548 4.85414 10.2016 4.85414 10.5ZM20.351 6.43125C19.8213 5.17266 19.062 4.04297 18.094 3.07266C17.1328 2.10798 15.9917 1.34117 14.7354 0.815625C13.4463 0.274219 12.0776 0 10.6666 0H10.6198C9.19945 0.00703125 7.82367 0.288281 6.52992 0.841406C5.28436 1.37234 4.15399 2.14052 3.20179 3.10312C2.2432 4.07109 1.49086 5.19609 0.970543 6.45C0.431481 7.74844 0.159606 9.12891 0.166637 10.5492C0.17459 12.1769 0.559665 13.7806 1.29164 15.2344V18.7969C1.29164 19.0828 1.40522 19.357 1.60741 19.5592C1.8096 19.7614 2.08383 19.875 2.36976 19.875H5.93461C7.38842 20.607 8.9921 20.992 10.6198 21H10.669C12.0729 21 13.4346 20.7281 14.7166 20.1961C15.9666 19.6768 17.1034 18.919 18.0635 17.9648C19.0315 17.0063 19.7932 15.8859 20.3252 14.6367C20.8784 13.343 21.1596 11.9672 21.1666 10.5469C21.1737 9.11953 20.8971 7.73438 20.351 6.43125ZM16.8096 16.6969C15.1666 18.3234 12.9869 19.2188 10.6666 19.2188H10.6268C9.21351 19.2117 7.80961 18.8602 6.56976 18.1992L6.37289 18.0938H3.07289V14.7938L2.96742 14.5969C2.30648 13.357 1.95492 11.9531 1.94789 10.5398C1.93851 8.20312 2.83148 6.00937 4.46976 4.35703C6.1057 2.70469 8.29242 1.79062 10.6291 1.78125H10.669C11.8409 1.78125 12.9776 2.00859 14.0487 2.45859C15.094 2.89687 16.0315 3.52734 16.8377 4.33359C17.6416 5.1375 18.2744 6.07734 18.7127 7.12266C19.1674 8.20547 19.3948 9.35391 19.3901 10.5398C19.376 12.8742 18.4596 15.0609 16.8096 16.6969Z" fill="#808080"/>
</svg>
