<svg width="18" height="23" viewBox="0 0 18 23" fill="none" xmlns="http://www.w3.org/2000/svg">
<path fill-rule="evenodd" clip-rule="evenodd" d="M9 11.5C11.396 11.5 13.575 12.194 15.178 13.172C15.978 13.66 16.662 14.236 17.156 14.862C17.642 15.477 18 16.213 18 17C18 17.845 17.589 18.511 16.997 18.986C16.437 19.436 15.698 19.734 14.913 19.942C13.335 20.359 11.229 20.5 9 20.5C6.771 20.5 4.665 20.36 3.087 19.942C2.302 19.734 1.563 19.436 1.003 18.986C0.41 18.51 0 17.845 0 17C0 16.213 0.358 15.477 0.844 14.861C1.338 14.236 2.021 13.661 2.822 13.171C4.425 12.195 6.605 11.5 9 11.5ZM9 13.5C6.977 13.5 5.157 14.09 3.864 14.879C3.217 15.273 2.729 15.701 2.414 16.101C2.09 16.511 2 16.821 2 17C2 17.122 2.037 17.251 2.255 17.426C2.504 17.626 2.937 17.833 3.599 18.008C4.917 18.358 6.811 18.5 9 18.5C11.19 18.5 13.083 18.357 14.4 18.008C15.063 17.833 15.496 17.626 15.745 17.426C15.963 17.251 16 17.122 16 17C16 16.82 15.91 16.511 15.587 16.101C15.271 15.701 14.783 15.273 14.136 14.879C12.843 14.089 11.023 13.5 9 13.5ZM9 0.5C10.3261 0.5 11.5979 1.02678 12.5355 1.96447C13.4732 2.90215 14 4.17392 14 5.5C14 6.82608 13.4732 8.09785 12.5355 9.03553C11.5979 9.97322 10.3261 10.5 9 10.5C7.67392 10.5 6.40215 9.97322 5.46447 9.03553C4.52678 8.09785 4 6.82608 4 5.5C4 4.17392 4.52678 2.90215 5.46447 1.96447C6.40215 1.02678 7.67392 0.5 9 0.5ZM9 2.5C8.60603 2.5 8.21593 2.5776 7.85195 2.72836C7.48797 2.87913 7.15726 3.1001 6.87868 3.37868C6.6001 3.65726 6.37913 3.98797 6.22836 4.35195C6.0776 4.71593 6 5.10603 6 5.5C6 5.89397 6.0776 6.28407 6.22836 6.64805C6.37913 7.01203 6.6001 7.34274 6.87868 7.62132C7.15726 7.8999 7.48797 8.12087 7.85195 8.27164C8.21593 8.4224 8.60603 8.5 9 8.5C9.79565 8.5 10.5587 8.18393 11.1213 7.62132C11.6839 7.05871 12 6.29565 12 5.5C12 4.70435 11.6839 3.94129 11.1213 3.37868C10.5587 2.81607 9.79565 2.5 9 2.5Z" fill="#808080"/>
</svg>
