<svg width="25" height="25" viewBox="0 0 25 25" fill="none" xmlns="http://www.w3.org/2000/svg">
<g clip-path="url(#clip0_317_91)">
<path d="M19.7961 2.8316C20.5797 3.446 21.1197 4.4384 21.3405 5.4776L21.4185 5.5088L23.8725 6.644C24.0096 6.70711 24.1258 6.80806 24.2074 6.93498C24.2891 7.0619 24.3327 7.2095 24.3333 7.3604V22.2008C24.3324 22.3241 24.303 22.4455 24.2473 22.5555C24.1917 22.6655 24.1113 22.7611 24.0124 22.8348C23.9136 22.9085 23.7991 22.9583 23.6778 22.9803C23.5565 23.0023 23.4317 22.9959 23.3133 22.9616L16.5105 21.0416L8.42251 23.2712C8.27662 23.3115 8.1223 23.3099 7.97731 23.2664L0.902113 21.1604C0.738578 21.1124 0.594901 21.0129 0.492427 20.8767C0.389954 20.7405 0.334153 20.5748 0.333313 20.4044L0.333313 5.2976C0.333313 4.7696 0.846913 4.3904 1.35931 4.5392L8.20171 6.5324L11.6793 5.468C11.7273 5.4536 11.7761 5.4436 11.8257 5.438C11.9601 4.6508 12.3357 3.8948 12.9657 3.158C13.7133 2.282 15.0249 1.7684 16.3029 1.7072C17.6289 1.6436 18.6417 1.9268 19.7949 2.8304M1.93291 6.3572V19.8152L7.77691 21.554V8.0576L1.93291 6.3572ZM11.7837 7.094L9.37651 7.8296V21.3644L15.4545 19.6916V15.7376C15.4545 15.3008 15.8133 14.9468 16.2549 14.9468C16.6965 14.9468 17.0541 15.3008 17.0541 15.7388V19.5512L22.7337 21.1532V7.8632L21.3897 7.2392C21.3673 7.3712 21.3381 7.5004 21.3021 7.6268C21.0421 8.54729 20.6043 9.40791 20.0133 10.16L17.0409 13.8716C16.9627 13.9692 16.8627 14.0472 16.749 14.0993C16.6353 14.1515 16.511 14.1764 16.386 14.1721C16.261 14.1678 16.1387 14.1344 16.0288 14.0745C15.919 14.0146 15.8247 13.9299 15.7533 13.8272L12.9753 9.8036C12.5161 9.1644 12.1957 8.59 12.0141 8.0804C11.8999 7.76147 11.8226 7.43051 11.7837 7.094ZM16.3797 3.2888C15.5085 3.3308 14.6133 3.6812 14.1873 4.1792C13.6749 4.7792 13.4229 5.3408 13.3725 5.9096C13.3125 6.5948 13.3533 7.0784 13.5237 7.5572C13.6497 7.9112 13.9005 8.36 14.2881 8.9012L16.4613 12.0476L18.7533 9.1856C19.216 8.59486 19.5588 7.91941 19.7625 7.1972C20.0505 6.1892 19.6161 4.7084 18.8025 4.0724C17.9685 3.4184 17.3385 3.242 16.3809 3.2888M16.5465 4.1252C17.8713 4.1252 18.9465 5.1872 18.9465 6.4976C18.9424 7.13031 18.6873 7.73553 18.2373 8.18034C17.7874 8.62515 17.1792 8.87319 16.5465 8.87C15.2217 8.87 14.1465 7.808 14.1465 6.4976C14.1465 5.1872 15.2217 4.1252 16.5465 4.1252ZM16.5465 5.7068C16.442 5.70617 16.3385 5.72612 16.2417 5.76552C16.1449 5.80492 16.0569 5.86299 15.9825 5.93643C15.9082 6.00986 15.8491 6.09721 15.8085 6.1935C15.7679 6.28979 15.7467 6.39312 15.7461 6.4976C15.7461 6.9344 16.1049 7.2884 16.5465 7.2884C16.651 7.28887 16.7545 7.26876 16.8513 7.22922C16.948 7.18967 17.0359 7.13147 17.1101 7.05792C17.1844 6.98438 17.2434 6.89694 17.2838 6.80059C17.3242 6.70424 17.3452 6.60088 17.3457 6.4964C17.3441 6.28581 17.2591 6.08444 17.1093 5.93643C16.9595 5.78842 16.7571 5.70584 16.5465 5.7068Z" fill="#808080"/>
</g>
<defs>
<clipPath id="clip0_317_91">
<rect width="24" height="24" fill="white" transform="translate(0.333313 0.5)"/>
</clipPath>
</defs>
</svg>
